<svg width="24" height="24" viewBox="0 0 24 24" fill="none" xmlns="http://www.w3.org/2000/svg">
<path fill-rule="evenodd" clip-rule="evenodd" d="M9 12.0276L19 10.3609V14.647C18.408 14.3491 17.7232 14.1805 17 14.1805C14.8271 14.1805 13 15.703 13 17.6805C13 19.6579 14.8271 21.1805 17 21.1805C19.1729 21.1805 21 19.6579 21 17.6805V2L7 4.33333V15.647C6.40804 15.3491 5.72317 15.1805 5 15.1805C2.82708 15.1805 1 16.703 1 18.6805C1 20.6579 2.82708 22.1805 5 22.1805C7.17292 22.1805 9 20.6579 9 18.6805V12.0276ZM7 18.6805C7 19.4644 6.14079 20.1805 5 20.1805C3.85921 20.1805 3 19.4644 3 18.6805C3 17.8965 3.85921 17.1805 5 17.1805C6.14079 17.1805 7 17.8965 7 18.6805ZM17 19.1805C18.1408 19.1805 19 18.4644 19 17.6805C19 16.8965 18.1408 16.1805 17 16.1805C15.8592 16.1805 15 16.8965 15 17.6805C15 18.4644 15.8592 19.1805 17 19.1805ZM9 10V6.02759L19 4.36092V8.33333L9 10Z" fill="white"/>
</svg>
