<svg width="24" height="24" viewBox="0 0 24 24" fill="none" xmlns="http://www.w3.org/2000/svg">
<path fill-rule="evenodd" clip-rule="evenodd" d="M17.5858 7.99997L17.0093 7.99996C14.9891 8.01876 14.1695 8.88233 12.849 11.7638C12.7006 12.0884 12.6217 12.2609 12.5478 12.4205C10.7759 16.2489 8.96371 17.9389 5 18H3V16L4.98456 16.0001C7.99779 15.9536 9.24866 14.7871 10.7328 11.5805C10.8046 11.4254 10.8813 11.2576 11.0308 10.9306C12.6438 7.41093 13.9561 6.0283 17 6H17.5858L16.2929 4.70711L17.7071 3.29289L21.4142 7L17.7071 10.7071L16.2929 9.29289L17.5858 7.99997ZM17.5858 18H17C15.067 17.982 13.8323 17.4179 12.7755 16.1072C13.1678 15.5431 13.5362 14.917 13.8909 14.2284C14.7313 15.5397 15.5624 15.9866 17.0093 16L17.5858 16L16.2929 14.7071L17.7071 13.2929L21.4142 17L17.7071 20.7071L16.2929 19.2929L17.5858 18ZM4.98456 7.99988C7.02213 8.03134 8.25385 8.57494 9.29676 9.91515C9.62455 9.21039 9.95039 8.57241 10.2864 7.99919C8.998 6.66599 7.39018 6.03683 5 6H3V8L4.98456 7.99988Z" fill="white"/>
</svg>
